<svg width="540" height="300" viewBox="0 0 540 300" fill="none" xmlns="http://www.w3.org/2000/svg">
  <path d="M150 0L180 30L150 60L120 30L150 0ZM210 60L240 90L210 120L180 90L210 60ZM450 60L480 90L450 120L420 90L450 60ZM510 120L540 150L510 180L480 150L510 120ZM450 180L480 210L450 240L420 210L450 180ZM390 240L420 270L390 300L360 270L390 240ZM330 180L360 210L330 240L300 210L330 180ZM90 60L120 90L90 120L60 90L90 60Z" fill="#A8C7FA"/>
  <path d="M390 0L420 30L150 300L0 150L30 120L150 240L390 0Z" fill="#1B6EF3"/>
</svg>
