<svg xmlns="http://www.w3.org/2000/svg" viewBox="0 0 24 24" width="24" height="24">
  <!-- Node.js brand hexagon (official green #5FA04E). -->
  <path fill="#5FA04E" d="M12 1.5 21.5 7v10L12 22.5 2.5 17V7L12 1.5z"/>
  <path fill="#fff" d="M11.13 5.62a1.74 1.74 0 0 1 1.74 0l5.15 2.98c.54.31.87.89.87 1.51v5.95c0 .62-.33 1.2-.87 1.51l-5.15 2.98a1.74 1.74 0 0 1-1.74 0l-5.15-2.98a1.74 1.74 0 0 1-.87-1.51v-5.95c0-.62.33-1.2.87-1.51l5.15-2.98zM12 7.06 7.06 9.92v5.71L12 18.49l4.94-2.86V9.92L12 7.06z" opacity=".25"/>
</svg>
